<svg width="118" height="119" viewBox="0 0 118 119" fill="none" xmlns="http://www.w3.org/2000/svg">
<path d="M95.8115 118.173L70.7757 110.393V115.564H68.974V107.936L94.0801 115.74L95.0043 81.6839H113.559L95.6127 59.2452L96.0104 44.2237C96.0104 43.6856 95.9753 43.1591 95.9285 42.5859C94.2556 19.9717 73.7004 2.25941 49.1091 2.25941C23.2309 2.25941 2.17274 21.6915 2.17274 45.5808C2.17274 56.496 6.57156 66.9081 14.5386 74.8868L14.8077 75.1559V95.4185H13.006V75.8929C4.85181 67.61 0.371094 56.8586 0.371094 45.5808C0.371094 20.697 22.2365 0.457764 49.1091 0.457764C75.9817 0.457764 95.987 18.9071 97.7185 42.4455C97.7653 43.0538 97.8121 43.6388 97.8121 44.2471L97.4377 58.6369L117.314 83.4973H96.7709L95.8232 118.173H95.8115Z" fill="#33CC99"/>
<path d="M91.0451 60.7881L91.1036 58.4717L91.3493 48.8668L91.478 44.2457C91.478 43.8011 91.4429 43.3683 91.4078 42.912C89.9337 22.7312 71.5546 6.7738 49.1042 6.7738C26.6538 6.7738 6.68359 24.1585 6.68359 45.5911C6.68359 56.401 11.5153 66.1813 19.3185 73.2007V97.0316L64.4416 113.27V101.816L89.7114 109.666L90.6005 77.1784H104.148L91.0451 60.7881ZM66.9919 31.0258L71.4844 26.5334C72.198 25.8198 73.3328 25.8198 74.0347 26.5334C74.7484 27.2354 74.7484 28.3702 74.0464 29.0838L69.554 33.5762C69.1914 33.9272 68.7351 34.1027 68.2671 34.1027C67.7992 34.1027 67.3429 33.9272 66.9919 33.5762C66.29 32.8626 66.29 31.7278 66.9919 31.0258ZM49.5721 18.9408C49.5721 17.9463 50.3794 17.1391 51.3738 17.1391C52.3682 17.1391 53.1754 17.9463 53.1754 18.9408V25.2933C53.1754 26.2994 52.3682 27.1067 51.3738 27.1067C50.3794 27.1067 49.5721 26.2994 49.5721 25.2933V18.9408ZM28.7011 26.5334C29.4148 25.8198 30.5496 25.8198 31.2632 26.5334L35.7556 31.0258C36.4576 31.7278 36.4576 32.8626 35.7556 33.5762C35.3929 33.9272 34.9367 34.1027 34.4687 34.1027C34.0008 34.1027 33.5445 33.9272 33.1935 33.5762L28.7011 29.0838C27.9992 28.3702 27.9992 27.2354 28.7011 26.5334ZM21.1202 50.996C20.1257 50.996 19.3185 50.1888 19.3185 49.1944C19.3185 48.2 20.1257 47.3927 21.1202 47.3927H27.4727C28.4671 47.3927 29.2861 48.2 29.2861 49.1944C29.2861 50.1888 28.4671 50.996 27.4727 50.996H21.1202ZM35.7556 67.3746L31.2632 71.867C30.9005 72.218 30.4443 72.3935 29.988 72.3935C29.5317 72.3935 29.0638 72.218 28.7011 71.867C27.9992 71.1534 27.9992 70.0186 28.7011 69.305L33.1935 64.8125C33.9072 64.1106 35.042 64.1106 35.7556 64.8125C36.4576 65.5262 36.4576 66.661 35.7556 67.3746ZM59.0249 66.6493V73.5634C59.0249 73.8676 59.0015 74.16 58.9664 74.4642C58.9313 74.7684 58.8728 75.0726 58.7909 75.365C58.7091 75.6809 58.6155 75.9734 58.4868 76.2659C57.4222 78.9098 54.825 80.7817 51.8183 80.7817C48.8117 80.7817 46.2145 78.9098 45.1499 76.2659C45.0212 75.9734 44.9276 75.6809 44.8457 75.365H44.834C44.7521 75.0726 44.6936 74.7684 44.6586 74.4642C44.6235 74.16 44.6001 73.8676 44.6001 73.5634V66.6493C38.2241 63.8649 33.7668 57.5007 33.7668 50.0952C33.7668 40.1276 41.8508 32.0436 51.8183 32.0436C61.7859 32.0436 69.8699 40.1276 69.8699 50.0952C69.8699 57.5007 65.4126 63.8649 59.0366 66.6493H59.0249ZM74.0347 71.867C73.6838 72.218 73.2275 72.3935 72.7596 72.3935C72.2916 72.3935 71.8353 72.218 71.4844 71.867L66.9919 67.3746C66.29 66.661 66.29 65.5262 66.9919 64.8125C67.7056 64.1106 68.8404 64.1106 69.5423 64.8125L74.0347 69.305C74.7484 70.0186 74.7484 71.1534 74.0347 71.867ZM81.6274 50.996H75.2748C74.2687 50.996 73.4615 50.1888 73.4615 49.1944C73.4615 48.2 74.2687 47.3927 75.2748 47.3927H81.6274C82.6218 47.3927 83.429 48.2 83.429 49.1944C83.429 50.1888 82.6218 50.996 81.6274 50.996Z" fill="#33CC99"/>
<path d="M59.0264 69.0365H44.5898V70.8381H59.0264V69.0365Z" fill="#33CC99"/>
<path d="M58.9758 74.4653C58.9407 74.7695 58.8823 75.0737 58.8004 75.3662C58.7185 75.682 58.6249 75.9745 58.4962 76.267H45.1593C45.0306 75.9745 44.937 75.682 44.8552 75.3662H44.8435C44.7616 75.0737 44.7031 74.7695 44.668 74.4653H58.9875H58.9758Z" fill="#33CC99"/>
<path d="M51.9925 62.5313C52.5307 59.7352 52.519 56.869 51.8522 54.0963C51.431 52.3532 50.4132 50.4813 48.436 50.2941C46.4589 50.107 44.669 51.7448 44.9263 53.7337C45.1954 55.9097 47.2895 57.1732 49.2901 57.4773C53.8761 58.1793 58.1228 54.3771 58.9184 50.0017C59.7139 45.6262 56.6721 41.5316 52.2967 40.6191C49.9452 40.1277 47.5001 40.6074 45.64 42.1516C43.9787 43.5204 43.0077 45.6145 43.5342 47.7555C43.7213 48.5393 44.938 48.2117 44.7392 47.4162C43.9436 44.1405 47.5118 41.6954 50.4132 41.6837C53.6655 41.6603 56.988 43.8129 57.6783 47.112C58.3685 50.4111 56.2744 54.1782 53.2092 55.664C51.6182 56.4361 49.6176 56.5882 47.9915 55.8044C46.3653 55.0205 45.1486 52.5521 47.3948 51.6863C49.641 50.8206 50.4483 53.4061 50.7758 55.0205C51.2555 57.3954 51.2438 59.8288 50.7758 62.192C50.6238 62.9759 51.8288 63.3151 51.9808 62.5313H51.9925Z" fill="#33CC99"/>
</svg>
