<svg width="172" height="38" viewBox="0 0 172 38" fill="none" xmlns="http://www.w3.org/2000/svg">
<g clip-path="url(#clip0_333_622)">
<path d="M61.5652 9.17505V17.9457C61.29 17.6451 60.9713 17.3518 60.6092 17.0875C60.0081 16.6493 59.3345 16.3053 58.5668 16.0482C57.81 15.7947 57.0278 15.6571 56.2058 15.6571C54.7102 15.6571 53.3703 16.0409 52.1862 16.7978C50.9912 17.5619 50.0605 18.6012 49.3688 19.9338C48.6844 21.2555 48.3477 22.7692 48.3477 24.4567C48.3477 26.1442 48.6953 27.6832 49.387 29.005C50.0786 30.3159 51.0274 31.3552 52.2115 32.112C53.3957 32.8689 54.7464 33.2527 56.242 33.2527C57.0061 33.2527 57.7629 33.1332 58.5016 32.887C59.2404 32.6407 59.8886 32.3112 60.4426 31.902C60.917 31.5544 61.319 31.1741 61.6449 30.7613L61.6992 32.9304H65.5196V9.17505H61.5652ZM61.1017 27.2813C60.7106 28.0924 60.1638 28.7407 59.4504 29.2042C58.7479 29.6786 57.9295 29.9139 57.0061 29.9139C56.0826 29.9139 55.2751 29.6786 54.5726 29.2042C53.8628 28.7407 53.316 28.0924 52.914 27.2813C52.523 26.4701 52.3202 25.5322 52.3202 24.4567C52.3202 23.3812 52.5193 22.4795 52.914 21.6502C53.316 20.8282 53.8628 20.1836 54.5726 19.7274C55.2751 19.2638 56.0863 19.0357 57.0061 19.0357C57.9259 19.0357 58.7479 19.2638 59.4504 19.7274C60.1602 20.1836 60.707 20.8318 61.1017 21.6502C61.5036 22.4795 61.7028 23.4102 61.7028 24.4567C61.7028 25.5033 61.5036 26.4701 61.1017 27.2813Z" fill="#1C1B1F"/>
<path d="M72.3887 23.3596C71.5957 23.3596 70.9801 23.1604 70.5419 22.7657C70.1037 22.371 69.8828 21.8097 69.8828 21.0818C69.8828 20.3974 70.1073 19.8398 70.5564 19.4124C71.0054 18.9851 71.6174 18.7715 72.3851 18.7715C73.1999 18.7715 73.8227 18.9707 74.2645 19.3654C74.7027 19.7601 74.9236 20.3322 74.9236 21.0818C74.9236 21.7445 74.6991 22.2913 74.25 22.7186C73.801 23.146 73.1818 23.3596 72.3887 23.3596ZM70.4622 32.9306V25.3187H74.4094V32.9306H70.4622Z" fill="#1C1B1F"/>
<path d="M105.068 22.7222V32.9305H101.085V22.9756C101.085 22.1174 100.976 21.4185 100.748 20.8608C100.52 20.3032 100.183 19.894 99.7194 19.6224C99.2631 19.358 98.691 19.2204 98.0066 19.2204C97.467 19.2204 96.9673 19.3109 96.4856 19.4956C96.004 19.6767 95.5912 19.9338 95.2472 20.2706C94.9104 20.6001 94.6352 20.9803 94.4433 21.4113C94.2513 21.8386 94.1499 22.3057 94.1499 22.8236V32.9341H90.1738V22.9539C90.1738 22.1428 90.0543 21.4583 89.8189 20.9115C89.5835 20.3647 89.2431 19.9555 88.7905 19.6622C88.3451 19.3689 87.7983 19.224 87.1573 19.224C86.6177 19.224 86.118 19.3146 85.6436 19.4993C85.1801 19.6803 84.7673 19.9374 84.4305 20.2561C84.0829 20.5748 83.8185 20.9478 83.6193 21.3787C83.4274 21.806 83.3369 22.2804 83.3369 22.791V32.9377H79.3535V16.0192H83.2355L83.2826 18.4527C83.3659 18.3441 83.4455 18.2354 83.5288 18.1232C83.9127 17.6416 84.3762 17.2215 84.9049 16.8738C85.4445 16.519 86.0094 16.2365 86.6105 16.0337C87.2116 15.8345 87.8236 15.7332 88.4428 15.7332C89.3626 15.7332 90.1738 15.8708 90.8944 16.1605C91.6151 16.4538 92.2053 16.9064 92.6906 17.5293C93.0273 17.9675 93.3026 18.4781 93.5126 19.0792C93.7299 18.6338 94.0413 18.2318 94.4143 17.8661C94.8343 17.446 95.316 17.073 95.8555 16.7362C96.3951 16.4067 96.9492 16.1605 97.543 15.9903C98.1261 15.8164 98.7091 15.7368 99.2921 15.7368C100.578 15.7368 101.642 15.9903 102.501 16.5009C103.359 17.0115 103.996 17.7936 104.423 18.8438C104.851 19.8903 105.072 21.1868 105.072 22.7258L105.068 22.7222Z" fill="#1C1B1F"/>
<path d="M121.493 16.0121V18.3913C121.164 17.8988 120.773 17.4606 120.309 17.0695C119.77 16.6241 119.15 16.2765 118.448 16.0302C117.738 15.784 116.963 15.6572 116.105 15.6572C114.627 15.6572 113.298 16.0411 112.121 16.7871C110.945 17.533 110.014 18.5723 109.333 19.8941C108.649 21.2267 108.305 22.7295 108.305 24.4243C108.305 26.119 108.652 27.6255 109.333 28.9472C110.018 30.2798 110.93 31.3264 112.06 32.0905C113.201 32.8654 114.457 33.2492 115.851 33.2492C116.663 33.2492 117.427 33.1225 118.14 32.8654C118.861 32.6119 119.516 32.2715 120.099 31.8551C120.639 31.4712 121.091 31.0439 121.468 30.5514V32.9306H125.48V16.0121H121.497H121.493ZM121.03 27.1981C120.639 28.0021 120.081 28.6285 119.378 29.0776C118.676 29.5338 117.858 29.7511 116.934 29.7511C116.011 29.7511 115.21 29.5338 114.519 29.0776C113.816 28.6322 113.28 28.0021 112.896 27.1981C112.505 26.3942 112.313 25.4744 112.313 24.4279C112.313 23.3813 112.505 22.4869 112.896 21.6938C113.28 20.9117 113.816 20.2888 114.519 19.8325C115.21 19.3871 116.014 19.159 116.934 19.159C117.854 19.159 118.676 19.3871 119.378 19.8325C120.081 20.2888 120.635 20.908 121.03 21.6938C121.432 22.4869 121.624 23.3995 121.624 24.4279C121.624 25.4563 121.432 26.3978 121.03 27.1981Z" fill="#1C1B1F"/>
<path d="M132.44 12.4199C131.646 12.4199 131.031 12.2207 130.593 11.826C130.154 11.4313 129.934 10.87 129.934 10.1421C129.934 9.45773 130.158 8.90005 130.607 8.47275C131.056 8.04544 131.668 7.83179 132.436 7.83179C133.251 7.83179 133.874 8.03096 134.315 8.42567C134.753 8.82039 134.974 9.39254 134.974 10.1421C134.974 10.8048 134.75 11.3516 134.301 11.7789C133.852 12.2063 133.233 12.4199 132.44 12.4199ZM130.517 32.9307V16.0158H134.464V32.9307H130.517Z" fill="#1C1B1F"/>
<path d="M147.208 33.2529C145.516 33.2529 144.01 32.8727 142.681 32.1122C141.356 31.3518 140.305 30.3088 139.534 28.9835C138.763 27.6581 138.379 26.148 138.379 24.4569C138.379 22.7658 138.763 21.2593 139.534 19.9303C140.305 18.605 141.352 17.562 142.681 16.8016C144.006 16.0411 145.516 15.6609 147.208 15.6609C148.899 15.6609 150.376 16.0411 151.701 16.8016C153.027 17.562 154.07 18.605 154.83 19.9303C155.591 21.2593 155.971 22.7658 155.971 24.4569C155.971 26.148 155.591 27.6581 154.83 28.9835C154.07 30.3125 153.027 31.3554 151.701 32.1122C150.376 32.8727 148.877 33.2529 147.208 33.2529ZM147.208 29.7548C148.127 29.7548 148.946 29.5194 149.663 29.0486C150.38 28.5779 150.945 27.9478 151.365 27.1547C151.781 26.3617 151.98 25.4636 151.959 24.4569C151.98 23.4285 151.781 22.5195 151.365 21.7301C150.948 20.937 150.38 20.3142 149.663 19.8507C148.946 19.3908 148.127 19.159 147.208 19.159C146.288 19.159 145.458 19.3908 144.72 19.8507C143.981 20.3106 143.409 20.9407 143.003 21.7446C142.598 22.5449 142.391 23.4502 142.391 24.4569C142.391 25.4636 142.594 26.3617 143.003 27.1547C143.409 27.9478 143.981 28.5779 144.72 29.0486C145.458 29.5194 146.288 29.7548 147.208 29.7548Z" fill="#1C1B1F"/>
<path d="M170.382 15.9868L169.324 20.3178C169.089 20.1911 168.796 20.0824 168.459 19.9991C168.111 19.9086 167.775 19.8724 167.431 19.8724C166.891 19.8724 166.391 19.9738 165.91 20.173C165.428 20.383 165.008 20.6655 164.642 21.0312C164.276 21.3861 163.994 21.8134 163.784 22.2986C163.585 22.773 163.483 23.3198 163.483 23.9137V32.9379H159.5V16.0194H163.382L163.418 18.9164C163.61 18.5506 163.845 18.2066 164.121 17.8771C164.704 17.1927 165.37 16.6567 166.127 16.262C166.891 15.8601 167.684 15.6609 168.524 15.6609C168.89 15.6609 169.234 15.6971 169.563 15.7623C169.9 15.8275 170.175 15.8999 170.385 15.9904L170.382 15.9868Z" fill="#1C1B1F"/>
<path d="M128.688 10.8773H126.866C126.613 10.8773 126.406 10.6709 126.406 10.4174C126.406 10.1639 126.613 9.95752 126.866 9.95752H128.688C128.941 9.95752 129.148 10.1639 129.148 10.4174C129.148 10.6709 128.941 10.8773 128.688 10.8773Z" fill="#1C1B1F"/>
<path d="M138.113 10.8773H136.292C136.038 10.8773 135.832 10.6709 135.832 10.4174C135.832 10.1639 136.038 9.95752 136.292 9.95752H138.113C138.367 9.95752 138.573 10.1639 138.573 10.4174C138.573 10.6709 138.367 10.8773 138.113 10.8773Z" fill="#1C1B1F"/>
<path d="M132.491 7.07454C132.238 7.07454 132.031 6.86813 132.031 6.61464V4.79315C132.031 4.53966 132.238 4.33325 132.491 4.33325C132.745 4.33325 132.951 4.53966 132.951 4.79315V6.61464C132.951 6.86813 132.745 7.07454 132.491 7.07454Z" fill="#1C1B1F"/>
<path d="M135.177 8.19006C135.061 8.19006 134.941 8.14661 134.851 8.05607C134.67 7.87501 134.67 7.58531 134.851 7.40787L136.14 6.11871C136.321 5.93764 136.611 5.93764 136.788 6.11871C136.965 6.29977 136.969 6.58947 136.788 6.76691L135.499 8.05607C135.408 8.14661 135.292 8.19006 135.173 8.19006H135.177Z" fill="#1C1B1F"/>
<path d="M129.802 8.19017C129.686 8.19017 129.566 8.14672 129.476 8.05618L128.187 6.76702C128.006 6.58596 128.006 6.29626 128.187 6.11882C128.368 5.94138 128.657 5.93775 128.835 6.11882L130.124 7.40798C130.305 7.58904 130.305 7.87874 130.124 8.05618C130.033 8.14672 129.918 8.19017 129.798 8.19017H129.802Z" fill="#1C1B1F"/>
<path d="M29.6789 37.2253L21.9294 34.8172V36.4178H21.3717V34.0567L29.1429 36.4721L29.429 25.9307H35.1723L29.6173 18.9851L29.7404 14.3354C29.7404 14.1688 29.7296 14.0059 29.7151 13.8284C29.1972 6.82857 22.8347 1.346 15.2228 1.346C7.21264 1.346 0.694391 7.36089 0.694391 14.7555C0.694391 18.1341 2.05598 21.357 4.52205 23.8267L4.60534 23.91V30.182H4.04767V24.1381C1.52366 21.5743 0.136719 18.2464 0.136719 14.7555C0.136719 7.05309 6.90483 0.78833 15.2228 0.78833C23.5408 0.78833 29.7332 6.49904 30.2691 13.785C30.2836 13.9733 30.2981 14.1544 30.2981 14.3427L30.1822 18.7968L36.3347 26.4919H29.9758L29.6825 37.2253H29.6789Z" fill="#33CC99"/>
<path d="M28.2066 19.463L28.2247 18.7459L28.3007 15.7729L28.3406 14.3425C28.3406 14.2049 28.3297 14.0709 28.3188 13.9297C27.8626 7.68303 22.1736 2.74365 15.2244 2.74365C8.27522 2.74365 2.09375 8.12483 2.09375 14.759C2.09375 18.105 3.58933 21.1323 6.0047 23.3051V30.6816L19.9719 35.7079V32.1627L27.7937 34.5925L28.069 24.5363H32.2624L28.2066 19.463ZM20.7613 10.2505L22.1518 8.85994C22.3727 8.63904 22.724 8.63904 22.9413 8.85994C23.1622 9.07721 23.1622 9.42847 22.9449 9.64937L21.5543 11.0399C21.4421 11.1486 21.3008 11.2029 21.156 11.2029C21.0111 11.2029 20.8699 11.1486 20.7613 11.0399C20.544 10.819 20.544 10.4678 20.7613 10.2505ZM15.3692 6.50975C15.3692 6.20194 15.6191 5.95208 15.9269 5.95208C16.2347 5.95208 16.4846 6.20194 16.4846 6.50975V8.47609C16.4846 8.78751 16.2347 9.03738 15.9269 9.03738C15.6191 9.03738 15.3692 8.78751 15.3692 8.47609V6.50975ZM8.90894 8.85994C9.12983 8.63904 9.4811 8.63904 9.70199 8.85994L11.0926 10.2505C11.3098 10.4678 11.3098 10.819 11.0926 11.0399C10.9803 11.1486 10.8391 11.2029 10.6942 11.2029C10.5494 11.2029 10.4081 11.1486 10.2995 11.0399L8.90894 9.64937C8.69166 9.42847 8.69166 9.07721 8.90894 8.85994ZM6.56237 16.432C6.25456 16.432 6.0047 16.1821 6.0047 15.8743C6.0047 15.5665 6.25456 15.3166 6.56237 15.3166H8.52871C8.83651 15.3166 9.09 15.5665 9.09 15.8743C9.09 16.1821 8.83651 16.432 8.52871 16.432H6.56237ZM11.0926 21.5017L9.70199 22.8923C9.58973 23.0009 9.4485 23.0552 9.30728 23.0552C9.16605 23.0552 9.0212 23.0009 8.90894 22.8923C8.69166 22.6714 8.69166 22.3201 8.90894 22.0992L10.2995 20.7087C10.5204 20.4914 10.8717 20.4914 11.0926 20.7087C11.3098 20.9296 11.3098 21.2808 11.0926 21.5017ZM18.2952 21.2772V23.4174C18.2952 23.5115 18.288 23.602 18.2771 23.6962C18.2662 23.7903 18.2481 23.8845 18.2228 23.975C18.1974 24.0728 18.1685 24.1633 18.1286 24.2539C17.7991 25.0723 16.9952 25.6517 16.0645 25.6517C15.1339 25.6517 14.3299 25.0723 14.0004 24.2539C13.9606 24.1633 13.9316 24.0728 13.9063 23.975H13.9026C13.8773 23.8845 13.8592 23.7903 13.8483 23.6962C13.8375 23.602 13.8302 23.5115 13.8302 23.4174V21.2772C11.8566 20.4153 10.4769 18.4454 10.4769 16.1531C10.4769 13.0678 12.9792 10.5655 16.0645 10.5655C19.1498 10.5655 21.6521 13.0678 21.6521 16.1531C21.6521 18.4454 20.2724 20.4153 18.2988 21.2772H18.2952ZM22.9413 22.8923C22.8326 23.0009 22.6914 23.0552 22.5466 23.0552C22.4017 23.0552 22.2605 23.0009 22.1518 22.8923L20.7613 21.5017C20.544 21.2808 20.544 20.9296 20.7613 20.7087C20.9822 20.4914 21.3334 20.4914 21.5507 20.7087L22.9413 22.0992C23.1622 22.3201 23.1622 22.6714 22.9413 22.8923ZM25.2915 16.432H23.3251C23.0137 16.432 22.7638 16.1821 22.7638 15.8743C22.7638 15.5665 23.0137 15.3166 23.3251 15.3166H25.2915C25.5993 15.3166 25.8491 15.5665 25.8491 15.8743C25.8491 16.1821 25.5993 16.432 25.2915 16.432Z" fill="#33CC99"/>
<path d="M18.2948 22.0159H13.8262V22.5735H18.2948V22.0159Z" fill="#33CC99"/>
<path d="M18.2745 23.6963C18.2636 23.7904 18.2455 23.8846 18.2202 23.9751C18.1948 24.0729 18.1659 24.1634 18.126 24.254H13.9978C13.958 24.1634 13.929 24.0729 13.9036 23.9751H13.9C13.8747 23.8846 13.8566 23.7904 13.8457 23.6963H18.2781H18.2745Z" fill="#33CC99"/>
<path d="M16.1196 20.0025C16.2862 19.137 16.2826 18.2498 16.0762 17.3915C15.9458 16.852 15.6308 16.2726 15.0188 16.2146C14.4068 16.1567 13.8527 16.6637 13.9324 17.2793C14.0157 17.9528 14.6639 18.3439 15.2831 18.4381C16.7026 18.6554 18.0172 17.4784 18.2634 16.1241C18.5096 14.7698 17.5681 13.5023 16.2138 13.2199C15.4859 13.0678 14.7291 13.2162 14.1533 13.6942C13.6391 14.1179 13.3385 14.7661 13.5015 15.4288C13.5594 15.6714 13.936 15.57 13.8745 15.3238C13.6282 14.3099 14.7327 13.553 15.6308 13.5494C16.6375 13.5421 17.6659 14.2085 17.8796 15.2297C18.0932 16.2508 17.445 17.4169 16.4962 17.8768C16.0037 18.1158 15.3845 18.1629 14.8812 17.9202C14.3778 17.6776 14.0012 16.9135 14.6965 16.6456C15.3918 16.3776 15.6416 17.1779 15.743 17.6776C15.8915 18.4127 15.8879 19.1659 15.743 19.8974C15.6959 20.1401 16.0689 20.2451 16.116 20.0025H16.1196Z" fill="#33CC99"/>
</g>
<defs>
<clipPath id="clip0_333_622">
<rect width="171.763" height="38.0007" fill="white" transform="translate(0.136719 -0.000244141)"/>
</clipPath>
</defs>
</svg>
